<svg xmlns="http://www.w3.org/2000/svg" width="1250" height="920" viewBox="0 0 1250 920"><defs><marker id="arr" viewBox="0 0 10 10" refX="9" refY="5" markerWidth="7" markerHeight="7" orient="auto-start-reverse">
<path d="M 0 0 L 10 5 L 0 10 z" fill="#64748b"/></marker></defs><rect x="0" y="0" width="1250" height="920" fill="#ffffff"/><text x="30" y="42" font-family="Helvetica, Arial, sans-serif" font-size="21" fill="#0f172a" text-anchor="start" >Agentic Ops Environment — System Overview</text><text x="30" y="64" font-family="Helvetica, Arial, sans-serif" font-size="11" fill="#64748b" text-anchor="start" >k3s · Temporal · LGTM stack · LiteLLM  —  ARCHITECTURE.md §4 · draft v1 · 2026-07-03</text><rect x="40" y="110" width="150" height="50" rx="8" fill="#fefce8" stroke="#a16207" stroke-width="1.4"/><text x="115.0" y="139.0" font-family="Helvetica, Arial, sans-serif" font-size="13" font-weight="bold" fill="#0f172a" text-anchor="middle">Human / PM</text><rect x="30" y="220" width="195" height="250" rx="12" fill="#f8fafc" stroke="#475569" stroke-width="1.2" stroke-dasharray="none"/><text x="44" y="242" font-family="Helvetica, Arial, sans-serif" font-size="12" font-weight="bold" fill="#475569">Trackers / Forge</text><rect x="52" y="260" width="150" height="44" rx="8" fill="#ffffff" stroke="#475569" stroke-width="1.4"/><text x="127.0" y="277.0" font-family="Helvetica, Arial, sans-serif" font-size="13" font-weight="bold" fill="#0f172a" text-anchor="middle">GitHub</text><text x="127.0" y="291.0" font-family="Helvetica, Arial, sans-serif" font-size="10" fill="#475569" text-anchor="middle">issues · PRs · CI</text><rect x="52" y="320" width="150" height="44" rx="8" fill="#ffffff" stroke="#475569" stroke-width="1.4"/><text x="127.0" y="346.0" font-family="Helvetica, Arial, sans-serif" font-size="13" font-weight="bold" fill="#0f172a" text-anchor="middle">Linear</text><rect x="52" y="380" width="150" height="44" rx="8" fill="#ffffff" stroke="#475569" stroke-width="1.4"/><text x="127.0" y="397.0" font-family="Helvetica, Arial, sans-serif" font-size="13" font-weight="bold" fill="#0f172a" text-anchor="middle">Gitea</text><text x="127.0" y="411.0" font-family="Helvetica, Arial, sans-serif" font-size="10" fill="#475569" text-anchor="middle">self-hosted option</text><path d="M 115,160 L 115,220" fill="none" stroke="#64748b" stroke-width="1.6"  marker-end="url(#arr)"/><text x="122" y="195" font-family="Helvetica, Arial, sans-serif" font-size="10" fill="#334155" text-anchor="start" >creates tasks</text><rect x="260" y="80" width="690" height="800" rx="12" fill="#f8fafc" stroke="#334155" stroke-width="1.2" stroke-dasharray="none"/><text x="274" y="102" font-family="Helvetica, Arial, sans-serif" font-size="12" font-weight="bold" fill="#334155">k3s cluster</text><rect x="290" y="130" width="160" height="60" rx="8" fill="#eff6ff" stroke="#1d4ed8" stroke-width="1.4"/><text x="370.0" y="155.0" font-family="Helvetica, Arial, sans-serif" font-size="13" font-weight="bold" fill="#0f172a" text-anchor="middle">Gateway</text><text x="370.0" y="169.0" font-family="Helvetica, Arial, sans-serif" font-size="10" fill="#475569" text-anchor="middle">webhooks → workflows</text><path d="M 225,330 L 252,330 L 252,160 L 290,160" fill="none" stroke="#64748b" stroke-width="1.6"  marker-end="url(#arr)"/><text x="233" y="322" font-family="Helvetica, Arial, sans-serif" font-size="10" fill="#334155" text-anchor="start" >webhooks</text><rect x="280" y="230" width="320" height="150" rx="12" fill="#eef2ff" stroke="#4338ca" stroke-width="1.2" stroke-dasharray="none"/><text x="294" y="252" font-family="Helvetica, Arial, sans-serif" font-size="12" font-weight="bold" fill="#4338ca">Temporal</text><rect x="300" y="270" width="130" height="70" rx="8" fill="#ffffff" stroke="#4338ca" stroke-width="1.4"/><text x="365.0" y="309.0" font-family="Helvetica, Arial, sans-serif" font-size="13" font-weight="bold" fill="#0f172a" text-anchor="middle">Server + UI</text><rect x="450" y="270" width="130" height="70" rx="8" fill="#ffffff" stroke="#4338ca" stroke-width="1.4"/><text x="515.0" y="300.0" font-family="Helvetica, Arial, sans-serif" font-size="13" font-weight="bold" fill="#0f172a" text-anchor="middle">Engine workers</text><text x="515.0" y="314.0" font-family="Helvetica, Arial, sans-serif" font-size="10" fill="#475569" text-anchor="middle">workflows · activities</text><path d="M 368,190 L 368,270" fill="none" stroke="#64748b" stroke-width="1.6"  marker-end="url(#arr)"/><text x="376" y="232" font-family="Helvetica, Arial, sans-serif" font-size="10" fill="#334155" text-anchor="start" >start / signal</text><path d="M 434,305 L 446,305" fill="none" stroke="#64748b" stroke-width="1.6" marker-end="url(#arr)" marker-start="url(#arr)"/><rect x="700" y="250" width="150" height="70" rx="8" fill="#f0f9ff" stroke="#0369a1" stroke-width="1.4"/><text x="775.0" y="274.0" font-family="Helvetica, Arial, sans-serif" font-size="13" font-weight="bold" fill="#0f172a" text-anchor="middle">Postgres</text><text x="775.0" y="288.0" font-family="Helvetica, Arial, sans-serif" font-size="10" fill="#475569" text-anchor="middle">projections: run stats,</text><text x="775.0" y="300.0" font-family="Helvetica, Arial, sans-serif" font-size="10" fill="#475569" text-anchor="middle">heal cases, repo memory</text><path d="M 580,290 L 700,290" fill="none" stroke="#64748b" stroke-width="1.6"  marker-end="url(#arr)"/><text x="600" y="282" font-family="Helvetica, Arial, sans-serif" font-size="10" fill="#334155" text-anchor="start" >stats</text><rect x="330" y="450" width="220" height="90" rx="8" fill="#fdf4ff" stroke="#a21caf" stroke-width="1.4"/><text x="440.0" y="484.0" font-family="Helvetica, Arial, sans-serif" font-size="13" font-weight="bold" fill="#0f172a" text-anchor="middle">Agent Runner</text><text x="440.0" y="498.0" font-family="Helvetica, Arial, sans-serif" font-size="10" fill="#475569" text-anchor="middle">K8s Job per agent run</text><text x="440.0" y="510.0" font-family="Helvetica, Arial, sans-serif" font-size="10" fill="#475569" text-anchor="middle">claude · cursor · pi · codex</text><path d="M 515,340 L 515,450" fill="none" stroke="#64748b" stroke-width="1.6"  marker-end="url(#arr)"/><text x="523" y="400" font-family="Helvetica, Arial, sans-serif" font-size="10" fill="#334155" text-anchor="start" >spawns</text><rect x="620" y="460" width="150" height="60" rx="8" fill="#eff6ff" stroke="#1d4ed8" stroke-width="1.4"/><text x="695.0" y="485.0" font-family="Helvetica, Arial, sans-serif" font-size="13" font-weight="bold" fill="#0f172a" text-anchor="middle">LiteLLM Gateway</text><text x="695.0" y="499.0" font-family="Helvetica, Arial, sans-serif" font-size="10" fill="#475569" text-anchor="middle">virtual keys · budgets</text><path d="M 550,490 L 620,490" fill="none" stroke="#64748b" stroke-width="1.6"  marker-end="url(#arr)"/><text x="556" y="482" font-family="Helvetica, Arial, sans-serif" font-size="10" fill="#334155" text-anchor="start" >API keys</text><rect x="990" y="420" width="225" height="140" rx="8" fill="#fff7ed" stroke="#c2410c" stroke-width="1.4"/><text x="1102.5" y="473.0" font-family="Helvetica, Arial, sans-serif" font-size="13" font-weight="bold" fill="#0f172a" text-anchor="middle">Model subscriptions &amp; APIs</text><text x="1102.5" y="487.0" font-family="Helvetica, Arial, sans-serif" font-size="10" fill="#475569" text-anchor="middle">Anthropic / Claude Max</text><text x="1102.5" y="499.0" font-family="Helvetica, Arial, sans-serif" font-size="10" fill="#475569" text-anchor="middle">Cursor · z.ai GLM</text><text x="1102.5" y="511.0" font-family="Helvetica, Arial, sans-serif" font-size="10" fill="#475569" text-anchor="middle">OpenAI / Codex · OpenRouter</text><path d="M 770,490 L 990,490" fill="none" stroke="#64748b" stroke-width="1.6"  marker-end="url(#arr)"/><path d="M 440,540 L 440,575 L 1100,575 L 1100,560" fill="none" stroke="#64748b" stroke-width="1.6"  marker-end="url(#arr)"/><text x="700" y="568" font-family="Helvetica, Arial, sans-serif" font-size="10" fill="#334155" text-anchor="start" >subscription CLIs (direct)</text><rect x="280" y="640" width="650" height="225" rx="12" fill="#f0fdf4" stroke="#15803d" stroke-width="1.2" stroke-dasharray="none"/><text x="294" y="662" font-family="Helvetica, Arial, sans-serif" font-size="12" font-weight="bold" fill="#15803d">Observability — LGTM + Alloy</text><rect x="300" y="690" width="130" height="70" rx="8" fill="#ffffff" stroke="#15803d" stroke-width="1.4"/><text x="365.0" y="714.0" font-family="Helvetica, Arial, sans-serif" font-size="13" font-weight="bold" fill="#0f172a" text-anchor="middle">Alloy</text><text x="365.0" y="728.0" font-family="Helvetica, Arial, sans-serif" font-size="10" fill="#475569" text-anchor="middle">OTLP endpoint</text><text x="365.0" y="740.0" font-family="Helvetica, Arial, sans-serif" font-size="10" fill="#475569" text-anchor="middle">for all components</text><rect x="470" y="675" width="130" height="44" rx="8" fill="#ffffff" stroke="#15803d" stroke-width="1.4"/><text x="535.0" y="701.0" font-family="Helvetica, Arial, sans-serif" font-size="12" font-weight="bold" fill="#0f172a" text-anchor="middle">Prometheus</text><rect x="470" y="729" width="130" height="44" rx="8" fill="#ffffff" stroke="#15803d" stroke-width="1.4"/><text x="535.0" y="755.0" font-family="Helvetica, Arial, sans-serif" font-size="12" font-weight="bold" fill="#0f172a" text-anchor="middle">Loki</text><rect x="470" y="783" width="130" height="44" rx="8" fill="#ffffff" stroke="#15803d" stroke-width="1.4"/><text x="535.0" y="809.0" font-family="Helvetica, Arial, sans-serif" font-size="12" font-weight="bold" fill="#0f172a" text-anchor="middle">Tempo</text><rect x="640" y="700" width="130" height="70" rx="8" fill="#ffffff" stroke="#15803d" stroke-width="1.4"/><text x="705.0" y="730.0" font-family="Helvetica, Arial, sans-serif" font-size="13" font-weight="bold" fill="#0f172a" text-anchor="middle">Grafana</text><text x="705.0" y="744.0" font-family="Helvetica, Arial, sans-serif" font-size="10" fill="#475569" text-anchor="middle">dashboards · alerts</text><rect x="800" y="675" width="120" height="44" rx="8" fill="#ffffff" stroke="#b91c1c" stroke-width="1.4"/><text x="860.0" y="692.0" font-family="Helvetica, Arial, sans-serif" font-size="12" font-weight="bold" fill="#0f172a" text-anchor="middle">GlitchTip</text><text x="860.0" y="706.0" font-family="Helvetica, Arial, sans-serif" font-size="10" fill="#475569" text-anchor="middle">prod errors</text><rect x="800" y="729" width="120" height="44" rx="8" fill="#ffffff" stroke="#15803d" stroke-width="1.4"/><text x="860.0" y="746.0" font-family="Helvetica, Arial, sans-serif" font-size="12" font-weight="bold" fill="#0f172a" text-anchor="middle">Langfuse</text><text x="860.0" y="760.0" font-family="Helvetica, Arial, sans-serif" font-size="10" fill="#475569" text-anchor="middle">optional</text><path d="M 390,540 L 390,690" fill="none" stroke="#64748b" stroke-width="1.6"  marker-end="url(#arr)"/><text x="398" y="612" font-family="Helvetica, Arial, sans-serif" font-size="10" fill="#334155" text-anchor="start" >OTLP: logs · traces · metrics</text><path d="M 430,705 L 470,697" fill="none" stroke="#64748b" stroke-width="1.6"  marker-end="url(#arr)"/><path d="M 430,725 L 470,751" fill="none" stroke="#64748b" stroke-width="1.6"  marker-end="url(#arr)"/><path d="M 430,745 L 470,805" fill="none" stroke="#64748b" stroke-width="1.6"  marker-end="url(#arr)"/><path d="M 600,697 L 640,717" fill="none" stroke="#64748b" stroke-width="1.6"  marker-end="url(#arr)"/><path d="M 600,751 L 640,735" fill="none" stroke="#64748b" stroke-width="1.6"  marker-end="url(#arr)"/><path d="M 600,805 L 640,755" fill="none" stroke="#64748b" stroke-width="1.6"  marker-end="url(#arr)"/><path d="M 365,760 L 365,843 L 860,843 L 860,773" fill="none" stroke="#64748b" stroke-width="1.6" stroke-dasharray="6 4" marker-end="url(#arr)"/><text x="520" y="836" font-family="Helvetica, Arial, sans-serif" font-size="10" fill="#334155" text-anchor="start" >LLM spans (optional)</text><path d="M 920,697 L 935,697 L 935,160 L 450,160" fill="none" stroke="#b91c1c" stroke-width="1.6" stroke-dasharray="6 4" marker-end="url(#arr)"/><text x="600" y="152" font-family="Helvetica, Arial, sans-serif" font-size="10" fill="#b91c1c" text-anchor="start" >prod error alerts</text><path d="M 330,480 L 242,480 L 242,282 L 202,282" fill="none" stroke="#64748b" stroke-width="1.6"  marker-end="url(#arr)"/><text x="236" y="400" font-family="Helvetica, Arial, sans-serif" font-size="10" fill="#334155" text-anchor="start" transform="rotate(-90 236 400)">opens PRs</text><text x="30" y="520" font-family="Helvetica, Arial, sans-serif" font-size="10" fill="#64748b" text-anchor="start" >— solid: primary flow</text><text x="30" y="536" font-family="Helvetica, Arial, sans-serif" font-size="10" fill="#64748b" text-anchor="start" >-- dashed: optional / alert path</text><text x="30" y="566" font-family="Helvetica, Arial, sans-serif" font-size="10" fill="#94a3b8" text-anchor="start" >Not shown: ArgoCD (deploys everything</text><text x="30" y="580" font-family="Helvetica, Arial, sans-serif" font-size="10" fill="#94a3b8" text-anchor="start" >from platform-gitops), step-ca, Technitium,</text><text x="30" y="594" font-family="Helvetica, Arial, sans-serif" font-size="10" fill="#94a3b8" text-anchor="start" >MailPit — see §5.1</text></svg>